<svg width="592" height="592" viewBox="0 0 592 592" fill="none" xmlns="http://www.w3.org/2000/svg">
<g clip-path="url(#clip0_2054_12087)">
<g clip-path="url(#clip1_2054_12087)">
<path d="M671.862 -54L599.353 89.2412C599.199 89.2396 599.004 89.2378 598.769 89.2354C598.11 89.2284 597.133 89.2184 595.857 89.2051C593.307 89.1784 589.563 89.1388 584.793 89.0889C575.253 88.9891 561.607 88.8468 545.181 88.6758C512.328 88.3337 468.356 87.878 423.879 87.4219C334.933 86.5098 243.954 85.5967 235.868 85.5967C227.604 85.5967 210.796 88.7752 196.035 100.803C181.226 112.869 168.578 133.76 168.578 168.973C168.578 186.625 173.113 200.041 179.962 210.22C186.806 220.39 195.922 227.272 205.006 231.926C214.087 236.578 223.156 239.015 229.947 240.29C233.345 240.928 236.179 241.276 238.167 241.465C239.161 241.559 239.944 241.613 240.481 241.645C240.75 241.66 240.957 241.67 241.098 241.676C241.168 241.679 241.223 241.68 241.26 241.682C241.278 241.682 241.293 241.682 241.303 241.683C241.308 241.683 241.312 241.684 241.314 241.684C241.316 241.684 241.317 241.684 241.317 241.684C241.318 241.684 241.319 241.683 241.345 240.684L241.319 241.684H472.664L472.655 240.684L472.665 241.684H472.804C472.899 241.684 473.042 241.684 473.232 241.686C473.613 241.689 474.181 241.697 474.923 241.717C476.407 241.757 478.588 241.844 481.367 242.033C486.926 242.412 494.875 243.198 504.416 244.827C523.502 248.087 548.936 254.717 574.359 268.195C599.777 281.671 625.174 301.987 644.222 332.622C663.267 363.255 676 404.263 676 459.184C676 563.214 628.703 617.104 581.481 645.038C557.843 659.022 534.195 666.515 516.451 670.512C507.581 672.51 500.192 673.633 495.025 674.256C492.442 674.567 490.415 674.754 489.036 674.862C488.347 674.917 487.819 674.952 487.466 674.973C487.289 674.983 487.156 674.991 487.067 674.995C487.023 674.997 486.99 674.999 486.969 675H38.7676L123.658 533.719H466.476C474.735 533.719 492.883 530.299 508.991 518.959C525.157 507.578 539.242 488.234 539.242 456.518C539.242 436.182 534.435 421.247 527.159 410.301C519.885 399.357 510.188 392.471 500.52 388.156C490.858 383.845 481.21 382.094 473.99 381.419C470.377 381.081 467.365 381.011 465.251 381.026C464.194 381.034 463.361 381.064 462.79 381.091C462.505 381.104 462.285 381.117 462.135 381.127C462.06 381.132 462.002 381.136 461.963 381.139C461.955 381.139 461.947 381.14 461.94 381.141H223.504L223.509 382.058C223.505 381.141 223.504 381.141 223.503 381.141H223.379C223.292 381.14 223.161 381.138 222.988 381.136C222.642 381.131 222.126 381.12 221.45 381.096C220.098 381.047 218.11 380.948 215.576 380.741C210.508 380.328 203.26 379.487 194.56 377.778C177.154 374.36 153.957 367.473 130.768 353.602C84.4548 325.898 38 270.238 38 158.167C38.0001 56.4668 85.7391 3.48731 133.424 -24.1211C157.293 -37.9408 181.172 -45.4136 199.089 -49.4307C208.045 -51.4386 215.506 -52.5817 220.724 -53.2227C223.332 -53.5431 225.381 -53.7379 226.773 -53.8525C227.47 -53.9098 228.002 -53.9469 228.359 -53.9697C228.538 -53.9811 228.672 -53.9892 228.762 -53.9941C228.806 -53.9966 228.84 -53.9989 228.861 -54H671.862Z" stroke="white" stroke-width="2"/>
</g>
</g>
<defs>
<clipPath id="clip0_2054_12087">
<rect width="592" height="592" fill="white"/>
</clipPath>
<clipPath id="clip1_2054_12087">
<rect width="960" height="640" rx="8" fill="white"/>
</clipPath>
</defs>
</svg>
