<svg width="864" height="352" viewBox="0 0 864 352" fill="none" xmlns="http://www.w3.org/2000/svg">
<path d="M418.792 33.352C416.189 33.352 414.323 32.7547 413.192 31.56C412.061 30.3653 411.496 28.6587 411.496 26.44V15.464H414.92V26.536C414.92 27.88 415.229 28.8827 415.848 29.544C416.488 30.2053 417.469 30.536 418.792 30.536C420.115 30.536 421.096 30.2053 421.736 29.544C422.376 28.8827 422.696 27.88 422.696 26.536V15.464H426.12V26.44C426.12 28.6587 425.544 30.3653 424.392 31.56C423.261 32.7547 421.395 33.352 418.792 33.352ZM436.369 33.352C435.11 33.352 433.905 33.224 432.753 32.968C431.622 32.712 430.652 32.392 429.841 32.008L430.833 29.256C431.281 29.448 431.793 29.6507 432.369 29.864C432.945 30.056 433.574 30.2267 434.257 30.376C434.94 30.504 435.633 30.568 436.337 30.568C437.404 30.568 438.257 30.3867 438.897 30.024C439.558 29.64 439.889 29.0853 439.889 28.36C439.889 27.912 439.75 27.528 439.473 27.208C439.196 26.8667 438.78 26.568 438.225 26.312C437.67 26.0347 436.977 25.7573 436.145 25.48C434.865 25.0533 433.777 24.6053 432.881 24.136C431.985 23.6453 431.302 23.0693 430.833 22.408C430.364 21.7253 430.129 20.8827 430.129 19.88C430.129 18.8987 430.385 18.056 430.897 17.352C431.43 16.648 432.209 16.104 433.233 15.72C434.278 15.3147 435.569 15.112 437.105 15.112C438.172 15.112 439.164 15.208 440.081 15.4C441.02 15.5707 441.745 15.816 442.257 16.136V18.952C441.894 18.7813 441.436 18.6107 440.881 18.44C440.326 18.2693 439.718 18.1307 439.057 18.024C438.417 17.9173 437.766 17.864 437.105 17.864C435.825 17.864 434.908 18.056 434.353 18.44C433.82 18.8027 433.553 19.24 433.553 19.752C433.553 20.1787 433.692 20.5413 433.969 20.84C434.246 21.1387 434.705 21.4267 435.345 21.704C435.985 21.96 436.817 22.2693 437.841 22.632C438.886 22.9947 439.825 23.4 440.657 23.848C441.489 24.296 442.14 24.8613 442.609 25.544C443.078 26.2267 443.313 27.08 443.313 28.104C443.313 29.0213 443.089 29.8853 442.641 30.696C442.214 31.4853 441.489 32.1253 440.465 32.616C439.462 33.1067 438.097 33.352 436.369 33.352ZM429.078 12.776V11.304L431.67 10.184H442.998V12.776H429.078ZM454.579 33.352C452.766 33.352 451.305 33.0747 450.195 32.52C449.086 31.9653 448.275 31.1653 447.763 30.12C447.273 29.0747 447.027 27.8053 447.027 26.312V15.464H450.419V26.408C450.419 27.7947 450.75 28.84 451.411 29.544C452.073 30.2267 453.139 30.568 454.611 30.568C456.062 30.568 457.107 30.2267 457.747 29.544C458.387 28.8613 458.707 27.816 458.707 26.408V15.464H462.131V26.312C462.131 27.8053 461.875 29.0747 461.363 30.12C460.873 31.1653 460.073 31.9653 458.963 32.52C457.854 33.0747 456.393 33.352 454.579 33.352ZM456.563 25.832C455.625 25.832 454.889 25.6933 454.355 25.416C453.822 25.1387 453.438 24.776 453.203 24.328C452.99 23.8587 452.883 23.3787 452.883 22.888C452.883 22.5467 452.926 22.1947 453.011 21.832C453.118 21.4693 453.257 21.1707 453.427 20.936L455.891 21.384C455.827 21.4907 455.774 21.6293 455.731 21.8C455.71 21.9707 455.699 22.1413 455.699 22.312C455.699 22.5893 455.774 22.8453 455.923 23.08C456.094 23.2933 456.361 23.4 456.723 23.4H464.115V25.832H456.563ZM457.867 12.776C456.95 12.776 456.224 12.648 455.691 12.392C455.136 12.1147 454.742 11.7733 454.507 11.368C454.251 10.9413 454.123 10.4933 454.123 10.024C454.123 9.68267 454.176 9.32 454.283 8.936C454.368 8.552 454.496 8.22133 454.667 7.944L457.387 8.36C457.344 8.46667 457.302 8.616 457.259 8.808C457.216 9 457.195 9.18133 457.195 9.352C457.195 9.62933 457.28 9.864 457.451 10.056C457.622 10.248 457.92 10.344 458.347 10.344H466.091V12.776H457.867ZM467.968 33V15.464H470.4L470.944 18.248H471.104C471.466 17.3093 472.117 16.5627 473.056 16.008C474.016 15.432 475.189 15.144 476.576 15.144C477.877 15.144 478.976 15.368 479.872 15.816C480.768 16.264 481.461 16.9467 481.952 17.864C482.442 18.7813 482.688 19.9653 482.688 21.416V33H479.264V21.8C479.264 20.5413 478.965 19.6027 478.368 18.984C477.77 18.3653 476.896 18.056 475.744 18.056C474.805 18.056 474.005 18.28 473.344 18.728C472.704 19.176 472.213 19.8053 471.872 20.616C471.552 21.4053 471.392 22.3227 471.392 23.368V33H467.968ZM503.261 33.352C500.658 33.352 498.791 32.7547 497.661 31.56C496.53 30.3653 495.965 28.6587 495.965 26.44V15.464H499.389V26.536C499.389 27.88 499.698 28.8827 500.317 29.544C500.957 30.2053 501.938 30.536 503.261 30.536C504.583 30.536 505.565 30.2053 506.205 29.544C506.845 28.8827 507.165 27.88 507.165 26.536V15.464H510.589V26.44C510.589 28.6587 510.013 30.3653 508.861 31.56C507.73 32.7547 505.863 33.352 503.261 33.352ZM520.838 33.352C519.579 33.352 518.374 33.224 517.222 32.968C516.091 32.712 515.12 32.392 514.31 32.008L515.302 29.256C515.75 29.448 516.262 29.6507 516.838 29.864C517.414 30.056 518.043 30.2267 518.726 30.376C519.408 30.504 520.102 30.568 520.806 30.568C521.872 30.568 522.726 30.3867 523.366 30.024C524.027 29.64 524.358 29.0853 524.358 28.36C524.358 27.912 524.219 27.528 523.942 27.208C523.664 26.8667 523.248 26.568 522.694 26.312C522.139 26.0347 521.446 25.7573 520.614 25.48C519.334 25.0533 518.246 24.6053 517.35 24.136C516.454 23.6453 515.771 23.0693 515.302 22.408C514.832 21.7253 514.598 20.8827 514.598 19.88C514.598 18.8987 514.854 18.056 515.366 17.352C515.899 16.648 516.678 16.104 517.702 15.72C518.747 15.3147 520.038 15.112 521.574 15.112C522.64 15.112 523.632 15.208 524.55 15.4C525.488 15.5707 526.214 15.816 526.726 16.136V18.952C526.363 18.7813 525.904 18.6107 525.35 18.44C524.795 18.2693 524.187 18.1307 523.526 18.024C522.886 17.9173 522.235 17.864 521.574 17.864C520.294 17.864 519.376 18.056 518.822 18.44C518.288 18.8027 518.022 19.24 518.022 19.752C518.022 20.1787 518.16 20.5413 518.438 20.84C518.715 21.1387 519.174 21.4267 519.814 21.704C520.454 21.96 521.286 22.2693 522.31 22.632C523.355 22.9947 524.294 23.4 525.126 23.848C525.958 24.296 526.608 24.8613 527.078 25.544C527.547 26.2267 527.782 27.08 527.782 28.104C527.782 29.0213 527.558 29.8853 527.11 30.696C526.683 31.4853 525.958 32.1253 524.934 32.616C523.931 33.1067 522.566 33.352 520.838 33.352ZM513.547 12.776V11.304L516.139 10.184H527.467V12.776H513.547ZM531.752 33V15.464H535.144V22.76H535.272L542.024 15.464H545.928V15.592L535.144 26.792V33H531.752ZM542.6 33V26.952C542.6 25.7147 542.227 24.776 541.48 24.136C540.755 23.496 539.581 23.176 537.96 23.176L539.976 20.712C541.299 20.712 542.397 20.9573 543.272 21.448C544.168 21.9387 544.851 22.632 545.32 23.528C545.789 24.4027 546.024 25.448 546.024 26.664V33H542.6ZM555.454 33V20.808C555.454 19.8053 555.219 19.0693 554.75 18.6C554.302 18.1307 553.534 17.896 552.446 17.896C551.699 17.896 550.995 18.0027 550.334 18.216C549.694 18.408 549.086 18.6747 548.51 19.016V16.072C548.958 15.8587 549.576 15.6453 550.366 15.432C551.176 15.2187 552.136 15.112 553.246 15.112C554.376 15.112 555.358 15.2827 556.19 15.624C557.043 15.944 557.704 16.4773 558.174 17.224C558.643 17.9707 558.878 18.984 558.878 20.264V33H555.454ZM569.119 33.352C567.86 33.352 566.655 33.224 565.503 32.968C564.372 32.712 563.402 32.392 562.591 32.008L563.583 29.256C564.031 29.448 564.543 29.6507 565.119 29.864C565.695 30.056 566.324 30.2267 567.007 30.376C567.69 30.504 568.383 30.568 569.087 30.568C570.154 30.568 571.007 30.3867 571.647 30.024C572.308 29.64 572.639 29.0853 572.639 28.36C572.639 27.912 572.5 27.528 572.223 27.208C571.946 26.8667 571.53 26.568 570.975 26.312C570.42 26.0347 569.727 25.7573 568.895 25.48C567.615 25.0533 566.527 24.6053 565.631 24.136C564.735 23.6453 564.052 23.0693 563.583 22.408C563.114 21.7253 562.879 20.8827 562.879 19.88C562.879 18.8987 563.135 18.056 563.647 17.352C564.18 16.648 564.959 16.104 565.983 15.72C567.028 15.3147 568.319 15.112 569.855 15.112C570.922 15.112 571.914 15.208 572.831 15.4C573.77 15.5707 574.495 15.816 575.007 16.136V18.952C574.644 18.7813 574.186 18.6107 573.631 18.44C573.076 18.2693 572.468 18.1307 571.807 18.024C571.167 17.9173 570.516 17.864 569.855 17.864C568.575 17.864 567.658 18.056 567.103 18.44C566.57 18.8027 566.303 19.24 566.303 19.752C566.303 20.1787 566.442 20.5413 566.719 20.84C566.996 21.1387 567.455 21.4267 568.095 21.704C568.735 21.96 569.567 22.2693 570.591 22.632C571.636 22.9947 572.575 23.4 573.407 23.848C574.239 24.296 574.89 24.8613 575.359 25.544C575.828 26.2267 576.063 27.08 576.063 28.104C576.063 29.0213 575.839 29.8853 575.391 30.696C574.964 31.4853 574.239 32.1253 573.215 32.616C572.212 33.1067 570.847 33.352 569.119 33.352ZM589.953 33V21.416C589.953 20.136 589.644 19.2293 589.025 18.696C588.428 18.1413 587.447 17.864 586.081 17.864C584.993 17.864 583.948 18.0133 582.945 18.312C581.964 18.6107 581.047 19.0053 580.193 19.496V16.456C580.812 16.136 581.655 15.8373 582.721 15.56C583.809 15.2613 585.036 15.112 586.401 15.112C587.532 15.112 588.513 15.2507 589.345 15.528C590.177 15.784 590.785 16.264 591.169 16.968C591.98 17.3093 592.545 17.8533 592.865 18.6C593.185 19.3467 593.345 20.264 593.345 21.352V33H589.953ZM584.513 33.32C582.657 33.32 581.228 32.8933 580.225 32.04C579.244 31.1653 578.753 29.9173 578.753 28.296C578.753 26.5467 579.383 25.1813 580.641 24.2C581.921 23.2187 583.98 22.6427 586.817 22.472L590.593 22.216V24.904L587.233 25.16C585.335 25.3093 584.012 25.6293 583.265 26.12C582.54 26.6107 582.177 27.304 582.177 28.2C582.177 29.0747 582.455 29.7147 583.009 30.12C583.564 30.5253 584.321 30.728 585.281 30.728C585.623 30.728 585.932 30.7067 586.209 30.664C586.508 30.6 586.785 30.536 587.041 30.472L587.457 32.872C587.052 33.0213 586.593 33.128 586.081 33.192C585.591 33.2773 585.068 33.32 584.513 33.32ZM591.073 18.216L589.185 16.52C589.804 16.392 590.348 16.1467 590.817 15.784C591.287 15.4213 591.521 14.9307 591.521 14.312H594.721C594.721 14.9733 594.572 15.5707 594.273 16.104C593.975 16.6373 593.548 17.0853 592.993 17.448C592.46 17.7893 591.82 18.0453 591.073 18.216ZM579.422 12.776V11.304L582.014 10.184H593.342V12.776H579.422ZM604.387 33.32C603.128 33.32 602.04 33.096 601.123 32.648C600.227 32.1787 599.544 31.4853 599.075 30.568C598.606 29.6293 598.371 28.4453 598.371 27.016V15.464H601.795V26.664C601.795 27.9013 602.094 28.84 602.691 29.48C603.288 30.0987 604.152 30.408 605.283 30.408C606.67 30.408 607.736 29.9387 608.483 29C609.251 28.0613 609.635 26.76 609.635 25.096V15.464H613.059V33H610.339L610.083 30.376H609.891C609.507 31.2293 608.846 31.9333 607.907 32.488C606.99 33.0427 605.816 33.32 604.387 33.32ZM618.437 33V15.464H620.869L621.413 18.248H621.573C621.935 17.3093 622.586 16.5627 623.525 16.008C624.485 15.432 625.658 15.144 627.045 15.144C628.346 15.144 629.445 15.368 630.341 15.816C631.237 16.264 631.93 16.9467 632.421 17.864C632.911 18.7813 633.157 19.9653 633.157 21.416V33H629.733V21.8C629.733 20.5413 629.434 19.6027 628.837 18.984C628.239 18.3653 627.365 18.056 626.213 18.056C625.274 18.056 624.474 18.28 623.812 18.728C623.173 19.176 622.682 19.8053 622.341 20.616C622.021 21.4053 621.861 22.3227 621.861 23.368V33H618.437ZM643.369 33.352C642.11 33.352 640.905 33.224 639.753 32.968C638.622 32.712 637.652 32.392 636.841 32.008L637.833 29.256C638.281 29.448 638.793 29.6507 639.369 29.864C639.945 30.056 640.574 30.2267 641.257 30.376C641.94 30.504 642.633 30.568 643.337 30.568C644.404 30.568 645.257 30.3867 645.897 30.024C646.558 29.64 646.889 29.0853 646.889 28.36C646.889 27.912 646.75 27.528 646.473 27.208C646.196 26.8667 645.78 26.568 645.225 26.312C644.67 26.0347 643.977 25.7573 643.145 25.48C641.865 25.0533 640.777 24.6053 639.881 24.136C638.985 23.6453 638.302 23.0693 637.833 22.408C637.364 21.7253 637.129 20.8827 637.129 19.88C637.129 18.8987 637.385 18.056 637.897 17.352C638.43 16.648 639.209 16.104 640.233 15.72C641.278 15.3147 642.569 15.112 644.105 15.112C645.172 15.112 646.164 15.208 647.081 15.4C648.02 15.5707 648.745 15.816 649.257 16.136V18.952C648.894 18.7813 648.436 18.6107 647.881 18.44C647.326 18.2693 646.718 18.1307 646.057 18.024C645.417 17.9173 644.766 17.864 644.105 17.864C642.825 17.864 641.908 18.056 641.353 18.44C640.82 18.8027 640.553 19.24 640.553 19.752C640.553 20.1787 640.692 20.5413 640.969 20.84C641.246 21.1387 641.705 21.4267 642.345 21.704C642.985 21.96 643.817 22.2693 644.841 22.632C645.886 22.9947 646.825 23.4 647.657 23.848C648.489 24.296 649.14 24.8613 649.609 25.544C650.078 26.2267 650.313 27.08 650.313 28.104C650.313 29.0213 650.089 29.8853 649.641 30.696C649.214 31.4853 648.489 32.1253 647.465 32.616C646.462 33.1067 645.097 33.352 643.369 33.352ZM645.742 12.776C644.825 12.776 644.099 12.648 643.566 12.392C643.011 12.1147 642.617 11.7733 642.382 11.368C642.126 10.9413 641.998 10.4933 641.998 10.024C641.998 9.68267 642.051 9.32 642.158 8.936C642.243 8.552 642.371 8.22133 642.542 7.944L645.262 8.36C645.219 8.46667 645.177 8.616 645.134 8.808C645.091 9 645.07 9.18133 645.07 9.352C645.07 9.62933 645.155 9.864 645.326 10.056C645.497 10.248 645.795 10.344 646.222 10.344H653.966V12.776H645.742ZM655.883 33L652.747 15.464H656.171L657.323 22.664C657.409 23.24 657.505 24.008 657.611 24.968C657.718 25.928 657.835 27.048 657.963 28.328H658.059C658.251 27.4533 658.433 26.664 658.603 25.96C658.774 25.256 658.934 24.6267 659.083 24.072C659.233 23.496 659.371 22.9947 659.499 22.568L661.515 15.464H664.043L666.091 22.568C666.198 22.9947 666.326 23.496 666.475 24.072C666.646 24.6267 666.817 25.256 666.987 25.96C667.158 26.664 667.339 27.4533 667.531 28.328H667.627C667.755 27.048 667.862 25.928 667.947 24.968C668.054 24.008 668.161 23.24 668.267 22.664L669.419 15.464H672.843L669.739 33H666.379L663.723 24.168C663.553 23.5493 663.393 22.9413 663.243 22.344C663.115 21.7253 662.998 20.9787 662.891 20.104H662.763C662.678 20.68 662.582 21.2027 662.475 21.672C662.39 22.12 662.294 22.5467 662.187 22.952C662.081 23.3573 661.963 23.7627 661.835 24.168L659.179 33H655.883ZM683.503 33.32C681.711 33.32 680.281 33.096 679.215 32.648C678.148 32.2 677.369 31.5707 676.879 30.76C676.409 29.928 676.174 28.968 676.174 27.88C676.174 26.8987 676.313 26.12 676.591 25.544C676.889 24.9467 677.263 24.5093 677.711 24.232C678.159 23.9547 678.617 23.7627 679.087 23.656V23.528C678.639 23.3787 678.18 23.1547 677.711 22.856C677.263 22.5573 676.879 22.152 676.559 21.64C676.26 21.1067 676.111 20.4347 676.111 19.624C676.111 18.8773 676.281 18.1733 676.623 17.512C676.985 16.8293 677.561 16.2747 678.351 15.848C679.14 15.4213 680.175 15.208 681.455 15.208C682.009 15.208 682.575 15.2507 683.151 15.336C683.727 15.4213 684.175 15.5493 684.495 15.72L683.919 18.216C683.705 18.152 683.417 18.088 683.055 18.024C682.713 17.96 682.351 17.928 681.967 17.928C681.156 17.928 680.548 18.12 680.143 18.504C679.759 18.888 679.567 19.3893 679.567 20.008C679.567 20.6907 679.737 21.2133 680.079 21.576C680.42 21.9173 680.857 22.152 681.391 22.28C681.945 22.408 682.511 22.472 683.087 22.472H683.727V24.808H683.087C681.913 24.808 681.049 25.0213 680.495 25.448C679.94 25.8533 679.663 26.5467 679.663 27.528C679.663 28.0613 679.769 28.5733 679.983 29.064C680.217 29.5333 680.612 29.9067 681.167 30.184C681.721 30.4613 682.511 30.6 683.535 30.6C684.537 30.6 685.316 30.4613 685.871 30.184C686.425 29.9067 686.82 29.512 687.055 29C687.311 28.488 687.439 27.88 687.439 27.176V15.464H690.863V26.984C690.863 29.2027 690.265 30.8133 689.071 31.816C687.876 32.8187 686.02 33.32 683.503 33.32ZM685.37 13.64C685.22 13.384 685.103 13.064 685.018 12.68C684.911 12.2747 684.858 11.8693 684.858 11.464C684.858 10.9733 684.954 10.5147 685.146 10.088C685.338 9.66133 685.7 9.32 686.234 9.064C686.746 8.808 687.45 8.68 688.346 8.68H692.794V11.176H689.338C688.911 11.176 688.58 11.2507 688.346 11.4C688.09 11.5493 687.962 11.816 687.962 12.2C687.962 12.3493 687.994 12.5093 688.058 12.68C688.1 12.8507 688.164 13.0213 688.25 13.192L685.37 13.64ZM705.985 33V21.416C705.985 20.136 705.675 19.2293 705.057 18.696C704.459 18.1413 703.478 17.864 702.113 17.864C701.025 17.864 699.979 18.0133 698.977 18.312C697.995 18.6107 697.078 19.0053 696.225 19.496V16.456C696.843 16.136 697.686 15.8373 698.753 15.56C699.841 15.2613 701.067 15.112 702.433 15.112C703.563 15.112 704.545 15.2507 705.377 15.528C706.209 15.784 706.817 16.264 707.201 16.968C708.011 17.3093 708.577 17.8533 708.897 18.6C709.217 19.3467 709.377 20.264 709.377 21.352V33H705.985ZM700.545 33.32C698.689 33.32 697.259 32.8933 696.257 32.04C695.275 31.1653 694.785 29.9173 694.785 28.296C694.785 26.5467 695.414 25.1813 696.673 24.2C697.953 23.2187 700.011 22.6427 702.849 22.472L706.625 22.216V24.904L703.265 25.16C701.366 25.3093 700.043 25.6293 699.297 26.12C698.571 26.6107 698.209 27.304 698.209 28.2C698.209 29.0747 698.486 29.7147 699.041 30.12C699.595 30.5253 700.353 30.728 701.312 30.728C701.654 30.728 701.963 30.7067 702.241 30.664C702.539 30.6 702.817 30.536 703.073 30.472L703.489 32.872C703.083 33.0213 702.625 33.128 702.113 33.192C701.622 33.2773 701.099 33.32 700.545 33.32ZM707.105 18.216L705.217 16.52C705.835 16.392 706.379 16.1467 706.849 15.784C707.318 15.4213 707.553 14.9307 707.553 14.312H710.753C710.753 14.9733 710.603 15.5707 710.305 16.104C710.006 16.6373 709.579 17.0853 709.025 17.448C708.491 17.7893 707.851 18.0453 707.105 18.216ZM706.365 41.352V38.12C706.365 37.5867 706.13 37.32 705.661 37.32C705.554 37.32 705.448 37.3307 705.341 37.352C705.213 37.3733 705.096 37.4053 704.989 37.448L704.765 35.4C705.085 35.2933 705.458 35.208 705.885 35.144C706.29 35.08 706.653 35.048 706.973 35.048C707.805 35.048 708.413 35.2293 708.797 35.592C709.16 35.976 709.341 36.488 709.341 37.128V41.352H706.365ZM720.866 33.352C718.754 33.352 717.133 32.8507 716.002 31.848C714.872 30.8453 714.306 29.3627 714.306 27.4V25.64C714.306 24.6373 714.445 23.8373 714.722 23.24C715 22.6213 715.309 22.088 715.65 21.64C716.013 21.1493 716.312 20.7227 716.546 20.36C716.802 19.9973 716.93 19.5707 716.93 19.08C716.93 18.6533 716.824 18.3547 716.61 18.184C716.418 17.992 716.152 17.896 715.81 17.896C715.576 17.896 715.32 17.9387 715.042 18.024C714.786 18.088 714.52 18.184 714.242 18.312L713.538 16.008C713.986 15.7307 714.509 15.5387 715.106 15.432C715.725 15.304 716.258 15.24 716.706 15.24C717.538 15.24 718.21 15.3893 718.722 15.688C719.234 15.9653 719.597 16.36 719.81 16.872C720.045 17.3627 720.162 17.9493 720.162 18.632C720.162 19.3787 720.034 20.008 719.778 20.52C719.544 21.032 719.256 21.5333 718.914 22.024C718.573 22.5573 718.285 23.0587 718.05 23.528C717.816 23.9973 717.698 24.6267 717.698 25.416V27.144C717.698 28.04 717.837 28.744 718.114 29.256C718.413 29.7467 718.808 30.0987 719.298 30.312C719.789 30.504 720.312 30.6 720.866 30.6C721.869 30.6 722.626 30.3547 723.138 29.864C723.672 29.352 723.938 28.6053 723.938 27.624V15.464H727.362V27.752C727.362 29.544 726.808 30.9307 725.698 31.912C724.61 32.872 723 33.352 720.866 33.352ZM723.677 41.352V38.12C723.677 37.5867 723.443 37.32 722.973 37.32C722.867 37.32 722.76 37.3307 722.653 37.352C722.525 37.3733 722.408 37.4053 722.301 37.448L722.077 35.4C722.397 35.2933 722.771 35.208 723.197 35.144C723.603 35.08 723.965 35.048 724.285 35.048C725.117 35.048 725.725 35.2293 726.109 35.592C726.472 35.976 726.653 36.488 726.653 37.128V41.352H723.677ZM741.301 33.32C739.893 33.32 738.698 33.0427 737.717 32.488C736.757 31.9333 736.095 31.176 735.733 30.216H735.541L735.285 33H732.565V15.464H735.989V25.096C735.989 26.2053 736.159 27.1547 736.501 27.944C736.842 28.7333 737.343 29.3413 738.005 29.768C738.666 30.1947 739.466 30.408 740.405 30.408C741.557 30.408 742.421 30.0987 742.997 29.48C743.573 28.84 743.861 27.9013 743.861 26.664V15.464H747.285V27.112C747.285 28.4987 747.05 29.6507 746.581 30.568C746.111 31.4853 745.429 32.1787 744.533 32.648C743.637 33.096 742.559 33.32 741.301 33.32ZM756.086 33.352C755.19 33.352 754.326 33.256 753.494 33.064C752.662 32.872 751.809 32.5413 750.934 32.072L751.958 29.512C752.427 29.7893 752.971 30.0347 753.59 30.248C754.209 30.44 754.891 30.536 755.638 30.536C757.089 30.536 758.23 29.992 759.062 28.904C759.894 27.816 760.31 26.2373 760.31 24.168C760.31 22.1413 759.883 20.5947 759.03 19.528C758.198 18.4613 756.897 17.928 755.126 17.928C754.443 17.928 753.739 18.0133 753.014 18.184C752.31 18.3333 751.691 18.5573 751.158 18.856V16.008C751.798 15.688 752.502 15.464 753.27 15.336C754.038 15.1867 754.817 15.112 755.606 15.112C757.547 15.112 759.115 15.4853 760.31 16.232C761.526 16.9787 762.411 18.0347 762.966 19.4C763.542 20.744 763.83 22.3333 763.83 24.168C763.83 27.048 763.169 29.2987 761.846 30.92C760.545 32.5413 758.625 33.352 756.086 33.352ZM749.453 12.776V11.304L752.045 10.184H763.373V12.776H749.453ZM768.312 33V15.464H770.744L771.288 18.248H771.448C771.81 17.3093 772.461 16.5627 773.4 16.008C774.36 15.432 775.533 15.144 776.92 15.144C778.221 15.144 779.32 15.368 780.216 15.816C781.112 16.264 781.805 16.9467 782.296 17.864C782.786 18.7813 783.032 19.9653 783.032 21.416V33H779.608V21.8C779.608 20.5413 779.309 19.6027 778.712 18.984C778.114 18.3653 777.24 18.056 776.088 18.056C775.149 18.056 774.349 18.28 773.688 18.728C773.048 19.176 772.557 19.8053 772.216 20.616C771.896 21.4053 771.736 22.3227 771.736 23.368V33H768.312ZM798.229 33V25.32H795.957V22.888H801.397V30.312H801.781C802.655 30.312 803.391 30.1093 803.989 29.704C804.586 29.2773 805.034 28.616 805.333 27.72C805.631 26.8027 805.781 25.6187 805.781 24.168C805.781 22.6747 805.599 21.4693 805.237 20.552C804.895 19.6133 804.341 18.9413 803.573 18.536C802.805 18.1093 801.802 17.896 800.565 17.896C799.519 17.896 798.538 18.0453 797.621 18.344C796.703 18.6213 795.839 19.016 795.029 19.528V16.456C795.69 16.0933 796.543 15.784 797.589 15.528C798.655 15.2507 799.818 15.112 801.077 15.112C803.061 15.112 804.65 15.464 805.845 16.168C807.039 16.872 807.903 17.896 808.437 19.24C808.991 20.584 809.269 22.2267 809.269 24.168C809.269 26.0453 809.013 27.6453 808.501 28.968C807.989 30.2693 807.146 31.272 805.973 31.976C804.799 32.6587 803.242 33 801.301 33H798.229ZM806.032 13.544C804.922 13.544 804.048 13.288 803.408 12.776C802.746 12.2427 802.416 11.5067 802.416 10.568C802.416 9.608 802.746 8.872 803.408 8.36C804.048 7.848 804.922 7.592 806.032 7.592C807.141 7.592 808.037 7.848 808.72 8.36C809.381 8.872 809.712 9.608 809.712 10.568C809.712 11.5067 809.381 12.2427 808.72 12.776C808.037 13.288 807.141 13.544 806.032 13.544ZM806.032 11.912C806.522 11.912 806.906 11.7947 807.184 11.56C807.44 11.304 807.568 10.9733 807.568 10.568C807.568 10.1413 807.44 9.81067 807.184 9.576C806.906 9.34133 806.522 9.224 806.032 9.224C805.541 9.224 805.168 9.34133 804.912 9.576C804.656 9.81067 804.528 10.1413 804.528 10.568C804.528 10.9733 804.656 11.304 804.912 11.56C805.168 11.7947 805.541 11.912 806.032 11.912ZM818.454 33V20.808C818.454 19.8053 818.219 19.0693 817.75 18.6C817.302 18.1307 816.534 17.896 815.446 17.896C814.699 17.896 813.995 18.0027 813.334 18.216C812.694 18.408 812.086 18.6747 811.51 19.016V16.072C811.958 15.8587 812.576 15.6453 813.366 15.432C814.176 15.2187 815.136 15.112 816.246 15.112C817.376 15.112 818.358 15.2827 819.19 15.624C820.043 15.944 820.704 16.4773 821.174 17.224C821.643 17.9707 821.878 18.984 821.878 20.264V33H818.454ZM826.711 33V27.144C826.711 25.8 826.999 24.808 827.575 24.168C828.151 23.528 828.908 23.08 829.847 22.824L829.879 22.696L826.391 21.384V20.392C826.391 19.4747 826.679 18.6107 827.255 17.8C827.852 16.9893 828.706 16.3387 829.815 15.848C830.924 15.3573 832.268 15.112 833.847 15.112C835.234 15.112 836.492 15.336 837.623 15.784C838.754 16.2107 839.65 16.8827 840.311 17.8C840.972 18.7173 841.303 19.912 841.303 21.384V33H837.879V21.672C837.879 20.3493 837.495 19.4 836.727 18.824C835.959 18.2267 834.978 17.928 833.783 17.928C832.567 17.928 831.618 18.184 830.935 18.696C830.252 19.1867 829.9 19.816 829.879 20.584L833.175 22.184L832.887 23.88C832.098 23.9013 831.436 24.168 830.903 24.68C830.391 25.192 830.135 25.9813 830.135 27.048V33H826.711ZM836.679 12.776C835.762 12.776 835.037 12.648 834.503 12.392C833.949 12.1147 833.554 11.7733 833.319 11.368C833.063 10.9413 832.935 10.4933 832.935 10.024C832.935 9.68267 832.989 9.32 833.095 8.936C833.181 8.552 833.309 8.22133 833.479 7.944L836.199 8.36C836.157 8.46667 836.114 8.616 836.071 8.808C836.029 9 836.007 9.18133 836.007 9.352C836.007 9.62933 836.093 9.864 836.263 10.056C836.434 10.248 836.733 10.344 837.159 10.344H844.904V12.776H836.679ZM852.389 33.32C850.661 33.32 849.306 32.9253 848.325 32.136C847.343 31.3467 846.639 30.28 846.213 28.936C845.807 27.5707 845.605 26.056 845.605 24.392C845.605 22.5573 845.797 21.0427 846.181 19.848C846.586 18.6533 847.141 17.7147 847.845 17.032C848.57 16.328 849.423 15.8373 850.405 15.56C851.407 15.2613 852.506 15.112 853.701 15.112C855.471 15.112 856.901 15.368 857.989 15.88C859.098 16.392 859.909 17.1173 860.421 18.056C860.954 18.9947 861.221 20.104 861.221 21.384V33H857.797V21.704C857.797 20.4667 857.487 19.528 856.869 18.888C856.271 18.248 855.237 17.928 853.765 17.928C852.869 17.928 852.058 18.0987 851.333 18.44C850.629 18.7813 850.074 19.4213 849.669 20.36C849.263 21.2773 849.061 22.6213 849.061 24.392C849.061 25.5653 849.178 26.6213 849.413 27.56C849.647 28.4773 850.042 29.2027 850.597 29.736C851.173 30.248 851.962 30.504 852.965 30.504C853.242 30.504 853.509 30.4933 853.765 30.472C854.042 30.4293 854.298 30.3653 854.533 30.28L854.853 32.904C854.511 33.0533 854.117 33.16 853.669 33.224C853.221 33.288 852.794 33.32 852.389 33.32Z" fill="#286140"/>
<g clip-path="url(#clip0_112_4666)">
<path d="M216.31 124.427L244.529 68.6924H73.7041C73.7041 68.6924 0 72.1421 0 150.569C0 236.92 71.6538 236.596 71.6538 236.596H163.271C163.271 236.596 192.57 234.171 192.57 265.164C192.57 289.258 171.203 294.433 164.998 294.433H33.0751L0 349.466H172.876C172.876 349.466 245.878 346.394 245.878 266.188C245.878 181.563 167.372 182.263 167.372 182.263H78.5062C78.5062 182.263 50.9346 181.563 50.9346 154.72C50.9346 127.876 70.197 123.079 76.4019 123.079C82.6069 123.079 216.202 124.481 216.202 124.481L216.31 124.427Z" fill="#286140"/>
<path d="M396.955 46L293.683 228.134L327.19 287.749L434.185 105.184L396.955 46Z" fill="#286140"/>
<path d="M259.691 287.749L222.461 352H434.185L469.095 287.749H259.691Z" fill="#DF9FAA"/>
<path d="M398.035 166.901L504.436 349.466H571.45L469.095 166.901H398.035Z" fill="#286140"/>
<path d="M584.345 68.6924V349.466H642.186V182.694L723.498 319.874L804.27 184.527V349.466H864V68.6924H805.188L724.146 212.071L643.103 68.6924H584.345Z" fill="#286140"/>
</g>
<defs>
<clipPath id="clip0_112_4666">
<rect width="864" height="306" fill="white" transform="translate(0 46)"/>
</clipPath>
</defs>
</svg>
